<?xml version="1.0" encoding="UTF-8" standalone="no"?>
<svg
   version="1.1"
   id="Layer_1"
   x="0px"
   y="0px"
   width="122.88px"
   height="122.88px"
   viewBox="0 0 122.88 122.88"
   enable-background="new 0 0 122.88 122.88"
   xml:space="preserve"
   sodipodi:docname="green-checkmark-line-icon.svg"
   inkscape:version="1.3.2 (091e20e, 2023-11-25, custom)"
   inkscape:export-filename="green-checkmark-line-icon.svg"
   inkscape:export-xdpi="96"
   inkscape:export-ydpi="96"
   xmlns:inkscape="http://www.inkscape.org/namespaces/inkscape"
   xmlns:sodipodi="http://sodipodi.sourceforge.net/DTD/sodipodi-0.dtd"
   xmlns="http://www.w3.org/2000/svg"
   xmlns:svg="http://www.w3.org/2000/svg"><defs
     id="defs1" /><sodipodi:namedview
     id="namedview1"
     pagecolor="#ffffff"
     bordercolor="#000000"
     borderopacity="0.25"
     inkscape:showpageshadow="2"
     inkscape:pageopacity="0.0"
     inkscape:pagecheckerboard="0"
     inkscape:deskcolor="#d1d1d1"
     inkscape:zoom="2"
     inkscape:cx="28.25"
     inkscape:cy="87.25"
     inkscape:window-width="1920"
     inkscape:window-height="1057"
     inkscape:window-x="-8"
     inkscape:window-y="-8"
     inkscape:window-maximized="1"
     inkscape:current-layer="g1" /><g
     id="g1">
<path
   fill="#363e31"
   d="M34.388,67.984c-0.286-0.308-0.542-0.638-0.762-0.981c-0.221-0.345-0.414-0.714-0.573-1.097 c-0.531-1.265-0.675-2.631-0.451-3.934c0.224-1.294,0.812-2.531,1.744-3.548l0.34-0.35c2.293-2.185,5.771-2.592,8.499-0.951 c0.39,0.233,0.762,0.51,1.109,0.827l0.034,0.031c1.931,1.852,5.198,4.881,7.343,6.79l1.841,1.651l22.532-23.635 c0.317-0.327,0.666-0.62,1.035-0.876c0.378-0.261,0.775-0.482,1.185-0.661c0.414-0.181,0.852-0.323,1.3-0.421 c0.447-0.099,0.903-0.155,1.356-0.165h0.026c0.451-0.005,0.893,0.027,1.341,0.103c0.437,0.074,0.876,0.193,1.333,0.369 c0.421,0.161,0.825,0.363,1.207,0.604c0.365,0.231,0.721,0.506,1.056,0.822l0.162,0.147c0.316,0.313,0.601,0.653,0.85,1.014 c0.256,0.369,0.475,0.766,0.652,1.178c0.183,0.414,0.325,0.852,0.424,1.299c0.1,0.439,0.154,0.895,0.165,1.36v0.23 c-0.004,0.399-0.042,0.804-0.114,1.204c-0.079,0.435-0.198,0.863-0.356,1.271c-0.16,0.418-0.365,0.825-0.607,1.21 c-0.238,0.377-0.518,0.739-0.832,1.07l-27.219,28.56c-0.32,0.342-0.663,0.642-1.022,0.898c-0.369,0.264-0.767,0.491-1.183,0.681 c-0.417,0.188-0.851,0.337-1.288,0.44c-0.435,0.104-0.889,0.166-1.35,0.187l-0.125,0.003c-0.423,0.009-0.84-0.016-1.241-0.078 l-0.102-0.02c-0.415-0.07-0.819-0.174-1.205-0.31c-0.421-0.15-0.833-0.343-1.226-0.575l-0.063-0.04 c-0.371-0.224-0.717-0.477-1.032-0.754l-0.063-0.06c-1.58-1.466-3.297-2.958-5.033-4.466c-3.007-2.613-7.178-6.382-9.678-9.02 L34.388,67.984L34.388,67.984z M61.44,0c16.96,0,32.328,6.883,43.453,17.987c11.104,11.125,17.986,26.493,17.986,43.453 c0,16.961-6.883,32.329-17.986,43.454C93.769,115.998,78.4,122.88,61.44,122.88c-16.961,0-32.329-6.882-43.454-17.986 C6.882,93.769,0,78.4,0,61.439C0,44.48,6.882,29.112,17.986,17.987C29.112,6.883,44.479,0,61.44,0L61.44,0z M96.899,25.981 C87.826,16.907,75.29,11.296,61.44,11.296c-13.851,0-26.387,5.611-35.46,14.685c-9.073,9.073-14.684,21.609-14.684,35.458 c0,13.851,5.611,26.387,14.684,35.46s21.609,14.685,35.46,14.685c13.85,0,26.386-5.611,35.459-14.685s14.684-21.609,14.684-35.46 C111.583,47.59,105.973,35.054,96.899,25.981L96.899,25.981z"
   id="path1" />
<path
   style="fill:#c8ab37;stroke-width:0.176777"
   d="m 51.696269,82.862806 c -1.486706,-0.531042 -1.217217,-0.31244 -9.968546,-8.086264 -1.313434,-1.166726 -3.603543,-3.306447 -5.089131,-4.754938 -2.938107,-2.864733 -3.578184,-3.806898 -3.943224,-5.804245 -0.800108,-4.377854 3.456144,-8.63315 7.910035,-7.908261 1.691222,0.275254 2.734705,0.928581 5.319615,3.330628 1.321125,1.227665 3.361447,3.098215 4.534048,4.156781 1.1726,1.058563 2.340138,2.1173 2.594528,2.352745 l 0.462527,0.428085 10.560578,-11.103194 C 76.83508,42.06022 76.801245,42.093826 78.213908,41.432761 c 5.382287,-2.518676 11.260068,2.66924 9.466519,8.355452 -0.194903,0.617911 -0.622761,1.481448 -0.950797,1.91897 -0.601945,0.802853 -27.215889,28.823587 -28.268216,29.76245 -0.311875,0.278248 -1.082741,0.751819 -1.713037,1.052378 -1.470359,0.701149 -3.634559,0.847137 -5.052108,0.340795 z"
   id="path2" /><path
   style="fill:#b7b29e;stroke-width:0.176777;fill-opacity:1"
   d="m 51.536641,82.72316 c -0.385479,-0.145533 -1.190955,-0.640927 -1.789947,-1.100873 -1.958883,-1.504162 -9.990431,-8.726723 -12.920108,-11.618716 -2.464943,-2.433237 -2.943741,-2.99648 -3.426823,-4.031198 -1.643418,-3.520061 -0.108098,-7.344175 3.647305,-9.084562 0.879141,-0.407425 1.290789,-0.486648 2.550912,-0.490935 1.261155,-0.0043 1.658832,0.06915 2.474873,0.457062 1.263709,0.600708 1.582622,0.864468 6.778342,5.606087 2.415521,2.204407 4.486592,4.030438 4.602381,4.057849 0.115789,0.02741 4.503415,-4.463169 9.75028,-9.979064 12.634674,-13.282511 13.725393,-14.37186 15.030746,-15.011864 0.946547,-0.464084 1.223531,-0.514684 2.817513,-0.514717 1.548038,-3.1e-5 1.893409,0.05885 2.778588,0.473736 1.411375,0.661511 2.675869,1.902932 3.365943,3.304527 1.002246,2.035637 0.857496,4.728466 -0.350166,6.514323 -0.506734,0.749342 -6.353489,6.977767 -18.787453,20.013879 -3.9377,4.128394 -7.743994,8.126139 -8.45843,8.883876 -1.005602,1.066549 -1.602172,1.527671 -2.641435,2.041702 -1.236806,0.611741 -1.475431,0.667127 -3.032054,0.703748 -1.156307,0.0272 -1.910811,-0.04377 -2.390467,-0.22486 z"
   id="path3" /><path
   style="fill:#b7b29e;fill-opacity:1;stroke-width:0.176777"
   d="M 51.088465,82.385149 C 50.650942,82.1551 49.656574,81.436676 48.878756,80.78865 46.043193,78.426249 39.440947,72.411098 36.750433,69.738822 33.281282,66.293187 32.968943,65.745616 32.96889,63.10928 c -3.5e-5,-1.677522 0.03085,-1.824735 0.605015,-2.883686 0.712613,-1.314301 1.937865,-2.475129 3.338449,-3.162914 0.887265,-0.435709 1.204823,-0.494138 2.685626,-0.494138 2.630591,0 2.521483,-0.07148 9.541432,6.250649 2.28236,2.055478 4.240621,3.737235 4.351696,3.737235 0.184236,0 5.293661,-5.26367 15.528756,-15.997539 6.435882,-6.749516 8.040339,-8.281357 9.348427,-8.925326 1.099286,-0.541177 1.231051,-0.564238 2.890083,-0.50581 2.12846,0.07496 3.04681,0.465468 4.486138,1.90763 1.521056,1.52405 1.842766,2.342234 1.845818,4.694327 0.0022,1.669966 -0.05436,2.059997 -0.40032,2.76218 -0.399514,0.810881 -2.934843,3.649444 -8.427461,9.435412 -14.536431,15.312791 -20.213837,21.204944 -20.86139,21.650472 -1.38309,0.951591 -2.398654,1.242993 -4.300171,1.233879 -1.453657,-0.007 -1.839048,-0.07239 -2.512523,-0.426502 z"
   id="path4" /><path
   style="fill:#b7b29e;fill-opacity:1;stroke-width:0.00390625"
   d="m 53.375,66.464109 c -0.261795,-0.196969 -1.068903,-0.89679 -2.210938,-1.917042 -0.190107,-0.169835 -0.616396,-0.551684 -0.628766,-0.563218 -0.0049,-0.0045 0.0041,-0.0053 0.05859,-0.0052 l 0.06431,1.47e-4 0.261719,0.236769 c 1.414731,1.279863 1.907454,1.727688 2.30664,2.096455 0.22174,0.204842 0.201793,0.186029 0.197158,0.185944 -0.0021,-3.9e-5 -0.02401,-0.01528 -0.04872,-0.03387 z"
   id="path5" /><path
   style="fill:#b7b29e;fill-opacity:1;stroke-width:0.0078125"
   d="m 41.859375,66.640625 v -5.503906 l 2.767578,9.5e-5 2.767578,9.5e-5 0.160458,0.146389 c 0.08825,0.08051 0.316714,0.288772 0.507693,0.462796 0.19098,0.174023 0.410571,0.374256 0.48798,0.444962 0.180111,0.164514 1.13452,1.032234 1.291135,1.173861 0.06553,0.05926 0.172754,0.156254 0.238281,0.21555 0.132527,0.119924 0.694207,0.625133 0.857716,0.771482 0.05785,0.05178 0.173729,0.155597 0.257518,0.230715 0.829433,0.743593 1.773158,1.565057 2.078125,1.8089 0.135664,0.108473 0.16907,0.130365 0.190659,0.124947 0.02414,-0.0061 0.156409,-0.120436 0.344498,-0.297891 0.159595,-0.150571 1.443967,-1.431966 1.867187,-1.862858 0.469864,-0.478381 0.676898,-0.689923 1.09375,-1.117563 0.08164,-0.08375 0.215287,-0.22083 0.296992,-0.304614 0.0817,-0.08378 0.259172,-0.266593 0.394372,-0.406241 0.1352,-0.139649 0.302211,-0.311914 0.371138,-0.382813 0.06893,-0.0709 0.228848,-0.236133 0.355383,-0.367187 0.126535,-0.131055 0.27848,-0.2875 0.337657,-0.347657 l 0.107593,-0.109375 7.4e-5,5.41211 7.2e-5,5.412109 h -8.386718 -8.386719 z"
   id="path6" /><path
   style="fill:#b7b29e;fill-opacity:1;stroke-width:0.00390625"
   d="m 49.390625,62.948555 c -0.09131,-0.083 -0.432223,-0.393655 -0.757588,-0.690353 -2.568814,-2.34249 -3.463749,-3.14788 -4.206428,-3.785546 l -0.118289,-0.101562 0.09821,-10e-4 0.09821,-0.001 0.03346,0.02839 c 0.189958,0.161146 0.527624,0.459648 0.825075,0.72938 0.212527,0.192722 0.265181,0.241227 0.8125,0.74848 0.900558,0.834633 1.996332,1.841936 3.047852,2.801773 l 0.334961,0.305756 v 0.05841 c 0,0.03213 -4.4e-4,0.05838 -9.77e-4,0.05834 -5.37e-4,-4.2e-5 -0.07568,-0.06798 -0.166992,-0.150978 z"
   id="path7" /><path
   style="fill:#b7b29e;fill-opacity:1;stroke-width:0.00390625"
   d="m 49.486328,63.032642 c -0.03652,-0.0332 -0.452246,-0.411872 -0.923828,-0.841494 -2.696173,-2.456276 -3.37523,-3.067022 -4.168905,-3.749525 -0.04233,-0.0364 -0.07657,-0.06659 -0.07608,-0.06708 4.91e-4,-4.91e-4 0.0429,-0.0013 0.09423,-0.0018 l 0.09334,-9.53e-4 0.05692,0.0485 c 0.152498,0.129965 0.438335,0.382413 0.707527,0.624883 0.210901,0.189964 0.345522,0.313427 0.706889,0.6483 0.05916,0.05482 0.166451,0.154088 0.238424,0.220589 0.07197,0.0665 0.165136,0.152637 0.207031,0.191416 0.192142,0.177849 0.294289,0.272248 0.4375,0.404316 0.08486,0.07826 0.186816,0.1723 0.226562,0.208976 0.03975,0.03668 0.128516,0.118426 0.197266,0.181666 0.160326,0.147476 0.261449,0.240628 0.320313,0.295062 0.02578,0.02384 0.100488,0.09249 0.166015,0.152544 0.06553,0.06006 0.205274,0.188232 0.310547,0.284833 0.238608,0.218952 0.399032,0.365981 0.517578,0.474364 0.05049,0.04616 0.122559,0.112083 0.160156,0.146496 0.06463,0.05916 0.104608,0.09571 0.271485,0.248214 0.03867,0.03534 0.08965,0.08202 0.113281,0.103725 0.02363,0.02171 0.126465,0.115694 0.228516,0.208861 l 0.185547,0.169394 0.001,0.03149 c 5.71e-4,0.01732 -3.08e-4,0.04187 -0.002,0.05456 l -0.003,0.02306 z"
   id="path8" /><path
   style="fill:#b7b29e;fill-opacity:1;stroke-width:0.00390625"
   d="m 41.171875,61.121094 v -2.751953 h 1.564133 1.564133 l 0.127831,0.109817 c 0.178866,0.15366 0.447686,0.387979 0.57984,0.505423 0.02686,0.02387 0.12793,0.113546 0.22461,0.199289 0.164752,0.146115 0.250006,0.22212 0.376953,0.336059 0.351514,0.315496 0.671366,0.603764 0.894531,0.806199 0.360574,0.32708 0.80437,0.730217 0.978516,0.888868 0.0709,0.06459 0.19834,0.180632 0.283203,0.25787 0.150343,0.136834 0.290195,0.264327 0.460937,0.420206 0.04619,0.04217 0.127051,0.11592 0.179688,0.163889 0.05264,0.04797 0.133393,0.121618 0.179459,0.163665 0.124865,0.113973 0.252777,0.230597 0.396602,0.361605 0.07076,0.06445 0.162134,0.147706 0.203054,0.185006 0.04092,0.0373 0.141614,0.128706 0.223764,0.203125 l 0.149363,0.135307 5.1e-5,0.383789 5.1e-5,0.383789 h -4.19336 -4.193359 z"
   id="path9" /><path
   style="fill:#b7b29e;fill-opacity:1;opacity:1"
   d="M 52.890625,82.921115 C 52.021492,82.882153 51.609553,82.779965 51.053931,82.465506 50.238573,82.004044 49.570153,81.495253 47.9375,80.093322 44.301564,76.971209 39.030427,72.157356 36.457649,69.609375 34.41828,67.589662 33.931032,67.011596 33.468015,66.0625 c -1.286287,-2.636642 -0.783006,-5.554664 1.311708,-7.605278 0.926334,-0.906831 2.337308,-1.720086 3.376527,-1.946157 0.306557,-0.06669 0.401046,-0.07145 1.4375,-0.07247 1.210998,-0.0012 1.364772,0.01352 1.859375,0.177892 0.355837,0.118256 1.071394,0.464397 1.4375,0.695373 0.355315,0.224168 0.636532,0.434099 1.1875,0.886478 0.240625,0.197569 0.403408,0.321657 0.36174,0.275753 l -0.07576,-0.08346 h 0.07835 c 0.09392,0 0.4445,0.307225 2.230913,1.955001 0.688323,0.634906 1.619964,1.49158 2.070312,1.90372 0.450349,0.41214 0.818816,0.769398 0.818816,0.793906 0,0.03458 -0.014,0.03189 -0.0625,-0.012 -0.03437,-0.03111 -0.0625,-0.04915 -0.0625,-0.04008 0,0.0091 0.453516,0.42438 1.007812,0.922929 1.937415,1.742559 2.932138,2.60153 3.012678,2.60153 0.02356,0 0.228985,-0.179599 0.45649,-0.399108 0.428723,-0.413657 2.388396,-2.391509 3.397498,-3.429017 0.317622,-0.326563 0.831154,-0.853906 1.141183,-1.171875 0.310028,-0.317969 0.89359,-0.922656 1.296805,-1.34375 0.403215,-0.421094 0.910212,-0.948438 1.126661,-1.171875 0.407257,-0.420405 1.820648,-1.903232 4.512679,-4.734375 0.858006,-0.902344 1.983444,-2.083594 2.500969,-2.625 4.001444,-4.186077 3.946631,-4.129108 5.84055,-6.070313 l 1.089972,-1.117187 H 75.4729 76.125 v 9.184233 9.184233 l -1.287406,1.354829 c -1.660978,1.747968 -4.032744,4.238796 -8.743844,9.182783 -2.088281,2.191513 -4.466061,4.687691 -5.283955,5.547059 -0.817894,0.859369 -1.663012,1.732153 -1.878039,1.939519 -0.670005,0.646138 -1.166717,0.983347 -2.166131,1.470544 -0.948433,0.462344 -1.314263,0.558353 -2.246889,0.589687 -0.276711,0.0093 -0.643736,0.02154 -0.815611,0.02721 -0.171875,0.0057 -0.5375,2.22e-4 -0.8125,-0.01211 z M 49.21875,62.787096 c 0,-0.0054 -0.0457,-0.05108 -0.101563,-0.101562 l -0.101562,-0.09178 0.09178,0.101562 c 0.08556,0.09467 0.111341,0.115927 0.111341,0.09178 z m -0.3125,-0.280966 c 0,-0.0052 -0.05273,-0.05796 -0.117188,-0.117187 l -0.117187,-0.107693 0.107693,0.117187 c 0.100238,0.109076 0.126682,0.131556 0.126682,0.107693 z m -0.34375,-0.3125 c 0,-0.0052 -0.05273,-0.05796 -0.117188,-0.117187 l -0.117187,-0.107693 0.107693,0.117187 c 0.100238,0.109076 0.126682,0.131556 0.126682,0.107693 z m -0.375,-0.344034 c 0,-0.0054 -0.0457,-0.05108 -0.101563,-0.101562 l -0.101562,-0.09178 0.09178,0.101562 c 0.08556,0.09467 0.111341,0.115927 0.111341,0.09178 z m -0.375,-0.344149 c 0,-0.0056 -0.03867,-0.04427 -0.08594,-0.08594 l -0.08594,-0.07576 0.07576,0.08594 c 0.07081,0.08032 0.09611,0.100269 0.09611,0.07576 z m -0.34375,-0.3125 c 0,-0.0056 -0.03867,-0.04427 -0.08594,-0.08594 l -0.08594,-0.07576 0.07576,0.08594 c 0.07081,0.08032 0.09611,0.100269 0.09611,0.07576 z m -0.25,-0.217855 c 0,-0.0051 -0.05977,-0.06487 -0.132813,-0.132812 l -0.132812,-0.12353 0.12353,0.132812 c 0.114881,0.123515 0.142095,0.147173 0.142095,0.12353 z m -0.34375,-0.3125 c 0,-0.0051 -0.05977,-0.06487 -0.132813,-0.132812 l -0.132812,-0.12353 0.12353,0.132812 c 0.114881,0.123515 0.142095,0.147173 0.142095,0.12353 z M 46.5,60.31863 c 0,-0.0052 -0.05273,-0.05796 -0.117188,-0.117187 l -0.117187,-0.107693 0.107693,0.117187 C 46.473556,60.320013 46.5,60.342493 46.5,60.31863 Z m -0.28125,-0.249788 c 0,-0.0051 -0.05977,-0.06487 -0.132813,-0.132812 l -0.132812,-0.12353 0.12353,0.132812 c 0.114881,0.123515 0.142095,0.147173 0.142095,0.12353 z m -0.3125,-0.28125 c 0,-0.0051 -0.05977,-0.06487 -0.132813,-0.132812 l -0.132812,-0.12353 0.12353,0.132812 c 0.114881,0.123515 0.142095,0.147173 0.142095,0.12353 z M 45.5625,59.474596 c 0,-0.0054 -0.0457,-0.05108 -0.101563,-0.101562 l -0.101562,-0.09178 0.09178,0.101562 c 0.08556,0.09467 0.111341,0.115927 0.111341,0.09178 z m -0.28125,-0.25 c 0,-0.0054 -0.0457,-0.05108 -0.101563,-0.101562 l -0.101562,-0.09178 0.09178,0.101562 c 0.08556,0.09467 0.111341,0.115927 0.111341,0.09178 z M 45,58.974596 c 0,-0.0054 -0.0457,-0.05108 -0.101563,-0.101562 l -0.101562,-0.09178 0.09178,0.101562 C 44.974215,58.977483 45,58.998739 45,58.974596 Z m -0.25,-0.219149 c 0,-0.0056 -0.03867,-0.04427 -0.08594,-0.08594 l -0.08594,-0.07576 0.07576,0.08594 c 0.07081,0.08032 0.09611,0.100269 0.09611,0.07576 z"
   id="path10" /><path
   style="fill:#b7b29e;fill-opacity:1;stroke-width:0.015625"
   d="M 39.015625,72.277569 C 38.873828,72.143026 38.575,71.860316 38.351562,71.649322 c -1.22595,-1.157672 -2.516787,-2.420669 -3.115287,-3.048098 -1.680168,-1.761379 -2.22123,-2.693053 -2.524587,-4.347167 -0.06695,-0.365034 -0.08887,-0.583543 -0.09791,-0.975645 -0.0093,-0.404709 0.0063,-0.675238 0.05985,-1.036225 0.356731,-2.40468 2.144759,-4.597482 4.51421,-5.536139 0.528041,-0.209184 1.057327,-0.345054 1.668029,-0.428191 0.285481,-0.03886 1.207241,-0.03879 1.487877,1.15e-4 1.503636,0.208464 2.408242,0.648169 3.942094,1.916148 l 0.199905,0.165255 -0.08614,0.0047 -0.08614,0.0047 -0.193326,-0.162798 c -0.406009,-0.341896 -0.751401,-0.607826 -1.042018,-0.802289 -0.258416,-0.172915 -0.391746,-0.249894 -0.726563,-0.419486 -0.902742,-0.457259 -1.266249,-0.553618 -2.212613,-0.58652 -0.691736,-0.02405 -1.451494,0.0049 -1.866888,0.07116 -0.82593,0.13172 -2.073091,0.761447 -3.006947,1.518291 -0.428868,0.347575 -0.978778,0.929277 -1.304689,1.380115 -0.29398,0.406667 -0.601468,0.970293 -0.784562,1.438104 -0.601836,1.537707 -0.580533,3.212198 0.06122,4.811896 0.119317,0.297426 0.386781,0.827607 0.532065,1.054688 0.389256,0.608415 0.821903,1.096705 2.19924,2.482089 1.056764,1.062938 1.748822,1.732618 3.027876,2.929966 0.251276,0.235225 0.456865,0.430342 0.456865,0.433593 0,0.0033 -0.04043,0.0056 -0.08984,0.0053 l -0.08984,-6.25e-4 z"
   id="path11" /><path
   style="fill:#b7b29e;fill-opacity:1;stroke-width:0.00390625"
   d="m 37.434566,58.655878 9.81e-4,-1.935919 0.04297,-0.01737 c 0.271084,-0.109582 0.558822,-0.189821 0.831027,-0.231742 0.366005,-0.05637 0.714736,-0.07284 1.466933,-0.06928 0.399409,0.0019 0.486711,0.0038 0.66493,0.0145 0.574596,0.03451 0.942225,0.126018 1.47461,0.36706 0.17671,0.08001 0.49869,0.238196 0.640625,0.314739 0.499928,0.269602 0.922909,0.577417 1.722656,1.253627 0.127397,0.107718 0.158203,0.13299 0.158203,0.129784 0,-9.93e-4 -0.02729,-0.02512 -0.06064,-0.05362 -0.03335,-0.0285 -0.06016,-0.05229 -0.05957,-0.05287 5.89e-4,-5.8e-4 0.04302,-0.0016 0.09429,-0.0022 l 0.09322,-0.0011 0.07083,0.06034 c 0.247828,0.211131 0.710183,0.624369 1.120812,1.001748 l 0.123262,0.113281 3.03e-4,0.07749 3.02e-4,0.07749 -0.05566,-0.04983 c -0.07121,-0.06375 -0.07505,-0.06704 -0.07175,-0.0613 0.0015,0.0026 0.0308,0.03043 0.06508,0.06178 l 0.06233,0.057 v 0.441151 0.44115 h -4.193363 -4.193363 z m 8.127934,0.816964 c 0,-0.0017 -0.143143,-0.131131 -0.164063,-0.148382 l -0.0098,-0.0081 0.0098,0.01126 c 0.0098,0.01132 0.159909,0.146946 0.162615,0.146946 7.96e-4,0 0.0014,-7.95e-4 0.0014,-0.0018 z m -0.289358,-0.258508 c -0.0091,-0.0099 -0.141753,-0.128896 -0.157908,-0.141686 -0.02568,-0.02033 0.02214,0.02552 0.08769,0.08409 0.07314,0.06535 0.09042,0.07952 0.07022,0.0576 z m -0.277547,-0.246205 c -0.0044,-0.0054 -0.103934,-0.09393 -0.145986,-0.12995 -0.0102,-0.0087 -0.0099,-0.0081 0.002,0.005 0.014,0.01542 0.144243,0.13141 0.147557,0.13141 10e-4,0 -5.75e-4,-0.0029 -0.0035,-0.0065 z m -0.249691,-0.221378 c -0.0033,-0.0025 -0.0332,-0.02829 -0.0664,-0.0573 -0.06848,-0.05983 -0.0769,-0.06672 -0.07247,-0.05937 0.0054,0.0089 0.140424,0.125717 0.142715,0.123426 0.0012,-0.0012 -5.19e-4,-0.0043 -0.0038,-0.0068 z"
   id="path12" /><path
   style="fill:#b7b29e;fill-opacity:1;stroke-width:0.00390625"
   d="m 37.434566,58.655362 9.81e-4,-1.936435 0.08398,-0.03247 c 0.498916,-0.192862 0.902931,-0.262331 1.640625,-0.282097 0.187587,-0.005 0.842238,-0.0051 1.007813,-5.9e-5 0.808656,0.02445 1.190382,0.114322 1.892578,0.445589 0.135357,0.06386 0.436559,0.214979 0.52539,0.263605 0.493761,0.270285 0.905415,0.571575 1.707199,1.249498 0.06544,0.05533 0.124247,0.104098 0.130692,0.108379 l 0.01172,0.0078 -0.01023,-0.0091 c -0.0056,-0.005 -0.03261,-0.02839 -0.05997,-0.05195 -0.02736,-0.02356 -0.04824,-0.0432 -0.04641,-0.04364 0.0018,-4.42e-4 0.04425,-0.0016 0.09428,-0.0025 l 0.09095,-0.0017 0.08678,0.07442 c 0.27036,0.23183 0.710136,0.625113 1.103218,0.986587 l 0.125807,0.115691 1.69e-4,0.07794 1.69e-4,0.07794 -0.01465,-0.01373 c -0.02379,-0.0223 -0.0921,-0.08273 -0.100887,-0.08926 -0.01178,-0.0087 0.04979,0.0498 0.085,0.08082 l 0.03001,0.02644 2.66e-4,0.442383 2.66e-4,0.442383 h -4.193363 -4.193363 z m 8.127934,0.81759 c 0,-0.0014 -0.13606,-0.124493 -0.157227,-0.142255 -0.0038,-0.0032 -0.0068,-0.0047 -0.0068,-0.0034 0,0.0024 0.160077,0.147271 0.162691,0.147271 7.55e-4,0 0.0014,-7.45e-4 0.0014,-0.0017 z m -0.28748,-0.256701 c -0.0078,-0.0087 -0.142296,-0.129224 -0.155879,-0.13962 -0.0043,-0.0033 -7.82e-4,0.0013 0.0078,0.01021 0.01629,0.01688 0.151161,0.13751 0.153926,0.137674 8.7e-4,5.2e-5 -0.0018,-0.0037 -0.0059,-0.0083 z m -0.276937,-0.24549 c -0.0013,-0.0021 -0.03173,-0.02968 -0.06761,-0.06124 -0.03588,-0.03157 -0.07034,-0.06191 -0.07658,-0.06744 -0.0062,-0.0055 -0.01,-0.0077 -0.0084,-0.0048 0.003,0.0053 0.150492,0.137365 0.153363,0.137365 8.6e-4,0 4.94e-4,-0.0017 -8.14e-4,-0.0038 z m -0.25822,-0.227112 c -0.0081,-0.009 -0.111884,-0.09952 -0.124629,-0.108654 -0.0043,-0.0031 -0.0025,-8.8e-5 0.0039,0.0067 0.01248,0.01304 0.123912,0.110079 0.126582,0.110222 8.7e-4,4.7e-5 -0.0018,-0.0037 -0.0059,-0.0082 z"
   id="path13" /><path
   style="fill:#b7b29e;fill-opacity:1;stroke-width:0.00390625"
   d="m 37.434566,58.655312 9.81e-4,-1.936485 0.07813,-0.03047 c 0.444341,-0.173322 0.835686,-0.249546 1.417969,-0.276181 0.261408,-0.01196 0.958639,-0.01638 1.240234,-0.0079 0.881991,0.02667 1.260677,0.128165 2.163965,0.58001 0.25735,0.128732 0.415751,0.217497 0.616621,0.345543 0.04063,0.0259 0.07741,0.04709 0.08172,0.04709 0.0043,0 0.01002,0.0026 0.0127,0.0059 0.0027,0.0032 0.0075,0.0059 0.01066,0.0059 0.0035,0 0.0049,0.0023 0.0036,0.0057 -0.0015,0.0038 -2.95e-4,0.0049 0.0035,0.0035 0.0033,-0.0013 0.0057,1.28e-4 0.0057,0.0033 0,0.003 0.02153,0.02024 0.04785,0.03826 0.304787,0.208766 0.63601,0.468271 1.133789,0.888296 0.06875,0.05801 0.134229,0.113255 0.145508,0.122763 0.01128,0.0095 0.02051,0.01636 0.02051,0.01523 0,-0.0011 -0.02288,-0.02182 -0.05085,-0.04598 -0.02797,-0.02416 -0.05038,-0.0443 -0.04981,-0.04477 5.77e-4,-4.68e-4 0.04285,-0.0018 0.09394,-0.0031 l 0.09289,-0.0022 0.0868,0.07462 c 0.262654,0.225818 0.682538,0.600615 1.014217,0.90531 0.07835,0.07197 0.158789,0.145745 0.178759,0.163937 l 0.03631,0.03308 5.9e-5,0.522586 5.9e-5,0.522587 H 41.626998 37.43362 Z m 8.38184,1.044559 c 0,-0.0019 -0.09391,-0.08568 -0.103281,-0.09211 -0.0044,-0.003 0.0069,0.0084 0.02516,0.02537 0.01826,0.01699 0.04199,0.03921 0.05273,0.04938 0.01707,0.01616 0.02539,0.02185 0.02539,0.01736 z M 45.5625,59.473221 c 0,-0.0016 -0.142647,-0.129966 -0.154297,-0.138838 -0.01853,-0.01411 0.01641,0.01892 0.08196,0.07748 0.06771,0.06049 0.07234,0.06442 0.07234,0.06136 z m -0.285156,-0.254239 c 0,-0.0022 -0.140076,-0.127486 -0.150391,-0.13449 -0.01139,-0.0077 0.01555,0.01747 0.08612,0.08055 0.06158,0.05505 0.06427,0.05731 0.06427,0.05394 z M 45,58.972958 c 0,-9.08e-4 -0.03032,-0.02848 -0.06738,-0.06126 -0.03706,-0.03279 -0.07134,-0.06311 -0.07617,-0.06739 -0.0048,-0.0043 -0.0088,-0.0067 -0.0088,-0.0053 0,0.0022 0.148875,0.135622 0.151332,0.135622 5.57e-4,0 0.001,-7.43e-4 0.001,-0.0017 z m -0.258178,-0.227305 c -0.0057,-0.0069 -0.110046,-0.09768 -0.122681,-0.106767 l -0.0078,-0.0056 0.0078,0.0082 c 0.0095,0.01 0.124396,0.110312 0.126454,0.110388 8.01e-4,3e-5 -8.97e-4,-0.0028 -0.0038,-0.0062 z"
   id="path14" /><path
   style="fill:#b7b29e;fill-opacity:1;stroke-width:0.0078125"
   d="m 32.627776,63.568359 c -0.0037,-0.06768 -0.0066,-0.286523 -0.0064,-0.486328 3.15e-4,-0.396314 0.006,-0.485684 0.05106,-0.800781 0.201231,-1.407594 0.89562,-2.775769 1.956291,-3.854536 0.408785,-0.415759 0.779065,-0.722229 1.24236,-1.028264 0.912711,-0.602902 1.923228,-0.980508 2.988926,-1.116891 0.163508,-0.02092 0.475132,-0.02985 0.878261,-0.02514 0.42142,0.0049 0.513172,0.0105 0.738281,0.04495 0.744147,0.11387 1.284658,0.276393 1.855469,0.55791 0.60374,0.297756 1.178664,0.696021 2.05739,1.425211 l 0.08083,0.06707 -0.03005,0.0054 c -0.05826,0.01049 -0.12938,0.0072 -0.144713,-0.0067 -0.0079,-0.0071 -0.01616,-0.01115 -0.01838,-0.0089 -0.0022,0.0022 0.01625,0.02103 0.04106,0.04179 0.02826,0.02364 0.03654,0.02844 0.02217,0.01283 l -0.02295,-0.02491 h 0.09504 0.09504 l 0.189628,0.165067 c 0.29552,0.257244 0.768826,0.68263 1.038478,0.933336 0.716653,0.666303 1.575636,1.459213 2.368558,2.18637 l 0.45056,0.41319 v 0.05898 0.05898 l -0.04492,-0.04277 c -0.02471,-0.02352 -0.06273,-0.05857 -0.0845,-0.07788 -0.02177,-0.01931 -0.0015,0.0018 0.0451,0.04692 l 0.08468,0.08203 -1.76e-4,0.748047 -1.76e-4,0.748047 H 40.66519 32.775687 l -0.0048,-0.05273 c -0.03466,-0.382308 -0.02424,-0.902406 0.02618,-1.306641 0.198056,-1.587764 0.997955,-3.049657 2.284948,-4.175962 0.536663,-0.469657 1.205541,-0.904759 1.882813,-1.224761 0.716627,-0.338597 1.08828,-0.448709 1.691406,-0.50112 0.259821,-0.02258 0.566752,-0.02964 1.162582,-0.02676 0.320931,0.0016 0.54484,5.95e-4 0.497574,-0.0021 -0.204445,-0.01178 -0.912577,-0.01643 -1.148437,-0.0075 -0.733901,0.02765 -1.032371,0.07232 -1.475682,0.220831 -0.775219,0.259711 -1.733978,0.801333 -2.438381,1.37749 -0.408384,0.334032 -0.912485,0.862149 -1.246227,1.305599 -0.30385,0.403731 -0.634112,0.998823 -0.831037,1.497429 -0.342144,0.86629 -0.485541,1.786898 -0.426192,2.736142 0.0043,0.06875 0.0095,0.13291 0.01164,0.142578 0.0037,0.01714 0.0022,0.01758 -0.0619,0.01758 h -0.06573 z M 48.1875,61.852422 c 0,-0.0017 -0.03603,-0.03543 -0.08008,-0.07501 l -0.08008,-0.07196 0.07813,0.07496 c 0.07642,0.07332 0.08203,0.07825 0.08203,0.07201 z m -0.375,-0.343496 c 0,-0.0015 -0.029,-0.02822 -0.06445,-0.05929 l -0.06445,-0.0565 0.0618,0.05929 c 0.05817,0.05581 0.06711,0.06334 0.06711,0.0565 z M 47.46875,61.19658 c 0,-0.0015 -0.03076,-0.02987 -0.06836,-0.06315 l -0.06836,-0.06051 0.06611,0.06315 c 0.06284,0.06003 0.07061,0.06669 0.07061,0.06051 z M 47.183037,60.935249 C 47.079922,60.839439 47,60.768248 47,60.772207 c 0,0.0054 0.213219,0.200562 0.218691,0.200151 0.0022,-1.63e-4 -0.01386,-0.01686 -0.03565,-0.03711 z m -0.34375,-0.3125 c -0.100588,-0.09346 -0.185474,-0.16871 -0.179959,-0.159529 0.0073,0.01216 0.210101,0.197063 0.21567,0.196638 0.0022,-1.63e-4 -0.01392,-0.01686 -0.03571,-0.03711 z m -0.387829,-0.351682 c -0.103719,-0.09575 -0.131293,-0.11697 -0.04911,-0.0378 0.04727,0.04554 0.0887,0.08287 0.09208,0.08297 0.0034,9.7e-5 -0.01596,-0.02023 -0.04297,-0.04516 z M 46.171875,60.01862 c -0.105958,-0.09817 -0.174672,-0.158882 -0.168812,-0.14915 0.0074,0.01228 0.210176,0.197087 0.215685,0.196568 0.0022,-2.03e-4 -0.01894,-0.02154 -0.04687,-0.04742 z m -0.293337,-0.265332 c -0.01698,-0.01753 -0.03791,-0.03532 -0.04651,-0.03954 -0.0086,-0.0042 0.0037,0.01001 0.02734,0.03162 0.05203,0.04757 0.06131,0.05141 0.01916,0.0079 z m -0.06604,-0.05676 c 0,-0.0015 -0.0079,-0.0094 -0.01758,-0.01758 l -0.01758,-0.01488 0.01488,0.01758 c 0.01399,0.01652 0.02027,0.02113 0.02027,0.01488 z m -0.296875,-0.265625 c 0,-0.0015 -0.0079,-0.0094 -0.01758,-0.01758 l -0.01758,-0.01488 0.01488,0.01758 c 0.01399,0.01652 0.02027,0.02113 0.02027,0.01488 z M 45.22656,59.173091 c 0,-0.0015 -0.0079,-0.0094 -0.01758,-0.01758 l -0.01758,-0.01488 0.01488,0.01758 c 0.01399,0.01652 0.02027,0.02114 0.02027,0.01488 z m -0.273437,-0.242442 c 0,-0.0016 -0.0062,-0.0078 -0.01367,-0.01367 -0.01239,-0.0097 -0.01267,-0.0094 -0.0029,0.0029 0.01021,0.01301 0.01662,0.01715 0.01662,0.01072 z m -0.25,-0.218496 c 0,-0.0015 -0.0079,-0.0094 -0.01758,-0.01758 l -0.01758,-0.01488 0.01488,0.01758 c 0.01399,0.01652 0.02027,0.02113 0.02027,0.01488 z M 44.13281,58.213217 c -0.04776,-0.04457 -0.100104,-0.08431 -0.111055,-0.08431 -0.0097,0 0.136311,0.124033 0.146212,0.124241 0.0043,9e-5 -0.01152,-0.01788 -0.03516,-0.03993 z m -0.171875,-0.138478 c 0,-0.01528 -0.470292,-0.384654 -0.686532,-0.539214 -0.314722,-0.224952 -0.532377,-0.355887 -0.911124,-0.548107 -0.608004,-0.308573 -0.937579,-0.4351 -1.328125,-0.509878 -0.127448,-0.0244 -0.329244,-0.0502 -0.426065,-0.05446 -0.04066,-0.0018 -0.06163,-0.0019 -0.04659,-1.58e-4 0.01504,0.0017 0.09167,0.01017 0.170299,0.01881 0.430871,0.04736 0.768697,0.148676 1.264187,0.379124 0.417831,0.194329 0.705565,0.349154 1.011926,0.544502 0.162195,0.103421 0.53278,0.378905 0.784057,0.582848 0.09023,0.07324 0.164941,0.133308 0.166015,0.133492 0.0011,1.84e-4 0.002,-0.0029 0.002,-0.007 z M 40.498253,56.41229 c -0.016,-0.0017 -0.04412,-0.0017 -0.0625,-5.2e-5 -0.01837,0.0017 -0.0053,0.003 0.02909,0.0031 0.03437,2.8e-5 0.04941,-0.0013 0.03341,-0.003 z"
   id="path15" /><path
   style="fill:#b7b29e;fill-opacity:1;stroke-width:0.0078125"
   d="m 52.121094,82.985059 c -0.192539,-0.04859 -0.317877,-0.08797 -0.585281,-0.183916 -0.324971,-0.116596 -0.43572,-0.161364 -0.617844,-0.249748 -0.198952,-0.09655 -0.340757,-0.178753 -0.548354,-0.317875 -0.662527,-0.443992 -1.627734,-1.252757 -4.119615,-3.451901 -0.718226,-0.633852 -3.713741,-3.28956 -3.773159,-3.345137 -0.0097,-0.0091 0.0015,-0.0107 0.07543,-0.0107 h 0.08687 l 0.252695,0.22795 c 0.138982,0.125372 0.356179,0.321369 0.482659,0.435547 0.12648,0.114178 0.351574,0.316581 0.50021,0.449784 0.148635,0.133204 0.352542,0.316016 0.453126,0.40625 0.276991,0.24849 0.60295,0.539164 0.949513,0.846732 0.171875,0.152535 0.356445,0.316357 0.410156,0.364048 0.0935,0.08302 0.280661,0.248387 0.566406,0.500447 1.544461,1.362393 2.901582,2.516272 3.492188,2.969198 0.579049,0.444064 1.319427,0.903549 1.742951,1.081692 0.177646,0.07472 0.451175,0.14099 0.755096,0.182938 l 0.03711,0.0051 v 0.06202 c 0,0.05404 -0.0018,0.06196 -0.01367,0.06154 -0.0075,-2.63e-4 -0.07344,-0.01556 -0.146484,-0.03399 z"
   id="path16" /><path
   style="fill:#b7b29e;fill-opacity:1;stroke-width:0.0078125"
   d="m 42.125,75.123854 c -0.900883,-0.800018 -1.511444,-1.35543 -2.501404,-2.275461 l -0.341248,-0.317143 0.07908,-0.0022 c 0.04349,-0.0012 0.08335,-0.0058 0.08858,-0.01013 0.0069,-0.0057 0.0421,0.02251 0.129357,0.103855 0.446612,0.41636 1.684668,1.553402 2.303451,2.11551 0.191211,0.173697 0.438184,0.398046 0.548829,0.498551 0.110644,0.100506 0.201171,0.184144 0.201171,0.185862 0,0.0017 -0.03779,0.0031 -0.08398,0.0031 l -0.08398,-6.6e-5 z"
   id="path17" /><path
   style="fill:#b7b29e;fill-opacity:1;stroke-width:0.0110485;opacity:1"
   d="M 47.668941,79.879512 C 44.575779,77.210483 39.431993,72.531769 37.167486,70.327538 35.451329,68.657062 34.509953,67.667816 34.037825,67.03873 l -0.129795,-0.172945 7.012109,-0.0028 c 3.856659,-0.0015 7.013773,-0.0011 7.015809,9.3e-4 0.002,0.002 0.0025,2.982852 9.29e-4,6.624037 l -0.0028,6.620336 z"
   id="path18" /><path
   style="opacity:1;fill:#b7b29e;fill-opacity:1;stroke-width:0.015625"
   d="m 53.117187,83.137461 c -0.129051,-0.0088 -0.553025,-0.06453 -0.699218,-0.09186 l -0.136719,-0.02556 v -0.06254 c 0,-0.06203 4.13e-4,-0.06246 0.05078,-0.05332 0.192784,0.03498 0.552816,0.04854 1.253906,0.04722 1.760114,-0.0033 2.09262,-0.07016 3.296875,-0.662911 0.899377,-0.442681 1.392603,-0.782046 2.084782,-1.434433 0.206279,-0.194421 0.457026,-0.454589 1.696559,-1.760305 0.342643,-0.360938 0.820295,-0.863106 1.061448,-1.115931 0.241154,-0.252824 0.46454,-0.488371 0.496414,-0.523437 l 0.05795,-0.06376 6.41e-4,0.06559 c 7.26e-4,0.07425 0.139022,-0.07531 -1.608133,1.7391 -1.671251,1.735582 -2.192946,2.260929 -2.391226,2.407968 -0.324098,0.240343 -0.759376,0.507153 -1.266369,0.776242 -0.779583,0.413767 -1.692469,0.664446 -2.741444,0.7528 -0.170984,0.0144 -0.968977,0.01795 -1.15625,0.0051 z"
   id="path19" /><path
   style="opacity:1;fill:#b7b29e;fill-opacity:1;stroke-width:0.015625"
   d="m 62.287835,77.453795 c -0.0053,-0.02111 -0.0072,-0.04529 -0.0042,-0.05372 0.003,-0.0084 0.39272,-0.42182 0.866072,-0.918639 0.473352,-0.496819 1.021412,-1.072057 1.21791,-1.278307 0.196498,-0.20625 0.638818,-0.670313 0.982933,-1.03125 0.344115,-0.360938 0.906993,-0.951491 1.25084,-1.312342 0.343847,-0.36085 0.83976,-0.881163 1.102028,-1.15625 0.561005,-0.588425 1.681525,-1.764416 2.999977,-3.148492 0.519776,-0.545646 1.159621,-1.21713 1.421879,-1.492187 0.471832,-0.49486 2.330441,-2.450235 2.766212,-2.910232 0.217082,-0.22915 0.228071,-0.238254 0.287618,-0.238281 l 0.06191,-2.9e-5 -0.07126,0.07422 c -0.03919,0.04082 -0.597809,0.629688 -1.241368,1.308594 -3.987992,4.207027 -11.602968,12.195312 -11.6254,12.195312 -0.003,0 -0.0099,-0.01728 -0.01515,-0.03839 z"
   id="path20" /><path
   style="opacity:1;fill:#b7b29e;fill-opacity:1;stroke-width:0.0078125"
   d="m 53.6875,75.3125 v -5.503906 h 7.904134 7.904134 l -0.06705,0.06836 c -0.03688,0.0376 -0.318126,0.332031 -0.624997,0.654297 -0.306869,0.322266 -1.241707,1.303125 -2.077417,2.179687 -2.034128,2.133565 -3.806422,3.994129 -5.108837,5.363282 -0.590633,0.620898 -1.172555,1.232617 -1.29316,1.359375 -0.120605,0.126758 -0.377378,0.397461 -0.570608,0.601562 -0.193229,0.204102 -0.443033,0.463379 -0.555118,0.576172 l -0.203793,0.205078 H 56.341143 53.6875 Z"
   id="path21" /><path
   style="opacity:1;fill:#b7b29e;fill-opacity:1;stroke-width:0.0078125"
   d="m 62.293987,77.462891 c -0.0134,-0.05001 -0.0076,-0.06135 0.07857,-0.154297 0.154675,-0.166773 1.223776,-1.2916 2.283327,-2.402344 0.131163,-0.1375 0.344022,-0.360742 0.473019,-0.496094 0.128998,-0.135351 0.342609,-0.359472 0.474693,-0.498047 l 0.480302,-0.503906 c 0.369376,-0.387528 0.693579,-0.727678 0.951255,-0.998047 0.128998,-0.135351 0.341836,-0.358594 0.472974,-0.496094 0.282776,-0.296494 0.871504,-0.914532 1.428866,-1.5 0.220893,-0.232031 0.441641,-0.463328 0.490553,-0.513992 l 0.08893,-0.09212 0.05796,0.0023 0.05796,0.0023 -0.122841,0.128994 c -0.06756,0.07095 -0.681826,0.716044 -1.365029,1.43355 -3.643325,3.826252 -5.823365,6.105425 -5.839867,6.105425 -0.0033,0 -0.0081,-0.0079 -0.01068,-0.01758 z"
   id="path22" /><path
   style="opacity:1;fill:#b7b29e;fill-opacity:1;stroke-width:0.0078125"
   d="m 62.293987,77.462891 c -0.01353,-0.05048 -0.0079,-0.06149 0.07856,-0.154432 0.199166,-0.214017 1.01672,-1.074241 2.346168,-2.468615 0.260147,-0.272852 0.903491,-0.947852 1.429654,-1.5 0.526163,-0.552149 1.134375,-1.190235 1.351584,-1.417969 0.573134,-0.600908 1.791698,-1.880175 1.910204,-2.005363 l 0.101563,-0.107288 0.06221,-3.15e-4 0.06221,-3.15e-4 -0.03568,0.03711 c -0.01962,0.02041 -0.490347,0.515234 -1.046056,1.099609 -0.555709,0.584375 -1.046123,1.099415 -1.089808,1.144532 -0.04369,0.04512 -0.258322,0.270117 -0.476969,0.5 -0.218647,0.229883 -0.580406,0.609648 -0.80391,0.843923 -0.223503,0.234275 -0.620665,0.650877 -0.882581,0.925781 -0.261916,0.274905 -0.517103,0.542014 -0.56708,0.593577 -0.04998,0.05156 -0.281881,0.294141 -0.51534,0.539062 -0.233458,0.244922 -0.461671,0.48403 -0.507138,0.531351 -0.157095,0.163501 -0.42816,0.446272 -0.703877,0.734274 -0.413714,0.432148 -0.696334,0.722657 -0.703035,0.722657 -0.0033,0 -0.0081,-0.0079 -0.01067,-0.01758 z"
   id="path23" /><path
   style="opacity:1;fill:#b7b29e;fill-opacity:1;stroke-width:0.0078125"
   d="m 62.293987,77.462891 c -0.0026,-0.0097 -0.0048,-0.02841 -0.0048,-0.04164 -1.37e-4,-0.03093 -0.0542,0.02707 1.39743,-1.499306 0.302435,-0.318007 0.582182,-0.611592 0.621662,-0.652413 0.03948,-0.04082 0.18052,-0.188476 0.313422,-0.328125 0.132903,-0.139648 0.776007,-0.814545 1.42912,-1.499771 0.653113,-0.685225 1.68974,-1.773311 2.303616,-2.417968 0.613876,-0.644658 1.125626,-1.181932 1.137224,-1.193944 0.02,-0.02071 0.02419,-0.02172 0.08145,-0.01953 l 0.06036,0.0023 -0.111646,0.117296 c -1.656169,1.73997 -3.427697,3.599711 -3.728392,3.914045 -0.09048,0.09458 -0.270087,0.282667 -0.399133,0.417968 -2.037174,2.13594 -3.076453,3.21866 -3.089522,3.21866 -0.0033,0 -0.0082,-0.0079 -0.01077,-0.01758 z"
   id="path24" /><path
   style="opacity:1;fill:#b7b29e;fill-opacity:1;stroke-width:0.0078125"
   d="m 62.293805,77.468111 c -0.0026,-0.0068 -0.0047,-0.02574 -0.0047,-0.04211 0,-0.03772 -0.07141,0.03905 1.445313,-1.553874 0.498084,-0.52311 0.754745,-0.798126 0.756378,-0.810473 l 0.0025,-0.01869 H 59.090363 53.6875 v -2.617188 -2.617187 h 7.904124 7.904124 l -0.06306,0.06445 c -0.03468,0.03545 -0.245394,0.256055 -0.468251,0.490234 -0.472763,0.496783 -0.913808,0.959692 -1.265222,1.327944 -0.1375,0.144089 -0.357144,0.374461 -0.488097,0.51194 -0.130953,0.137478 -0.34548,0.36246 -0.476726,0.49996 -0.225581,0.23633 -0.553407,0.580231 -1.120644,1.175597 -0.137241,0.144047 -0.313368,0.3287 -0.391393,0.41034 -0.632201,0.661502 -0.729377,0.765575 -0.721495,0.772712 0.0017,0.0015 0.1173,-0.117272 0.256948,-0.263973 0.139649,-0.1467 0.825147,-0.866102 1.523329,-1.598671 1.22166,-1.281828 2.650593,-2.781485 3.042675,-3.193271 l 0.187828,-0.197265 h 0.06212 0.06212 l -0.02347,0.02539 c -0.02558,0.02767 -0.122022,0.129139 -0.711027,0.748047 -0.214686,0.225586 -0.535859,0.563086 -0.713716,0.75 -0.177857,0.186914 -0.460833,0.483985 -0.628835,0.660156 -0.168001,0.176172 -0.556686,0.583985 -0.863743,0.90625 -2.912826,3.057099 -4.374186,4.582032 -4.391011,4.582032 -0.003,0 -0.0077,-0.0056 -0.01027,-0.01236 z"
   id="path25" /><path
   style="opacity:1;fill:#b7b29e;fill-opacity:1;stroke-width:0.0078125"
   d="m 53.6875,75.3125 v -5.503906 h 7.904102 7.9041 l -0.05516,0.05664 c -0.03034,0.03115 -0.163885,0.170899 -0.296768,0.310547 -0.132882,0.139649 -0.598401,0.628236 -1.034485,1.08575 -0.436085,0.457515 -0.940395,0.986616 -1.120691,1.175782 -0.180295,0.189165 -0.503852,0.528507 -0.719015,0.754093 -1.483008,1.554847 -1.756947,1.843228 -1.764958,1.858006 -0.01783,0.0329 -0.07565,0.09329 2.710221,-2.830691 0.605859,-0.635894 1.214062,-1.274062 1.351562,-1.418151 0.1375,-0.14409 0.40627,-0.42623 0.597266,-0.626979 l 0.347265,-0.364997 h 0.06175 0.06175 l -0.02567,0.0293 c -0.04687,0.05349 -3.446987,3.622251 -5.100537,5.353515 -1.289252,1.349844 -1.871467,1.956645 -2.076384,2.164063 -0.136799,0.138468 -0.142407,0.141342 -0.142659,0.07313 -1.15e-4,-0.03106 0.0049,-0.0377 0.126623,-0.167968 0.154429,-0.16526 0.543279,-0.575218 1.166226,-1.229537 0.829052,-0.870801 0.915053,-0.962396 0.909154,-0.968294 -0.0018,-0.0018 -0.180667,0.18307 -0.39758,0.410726 -0.216912,0.227656 -0.408449,0.428652 -0.425636,0.44666 -0.1457,0.152648 -1.515789,1.592591 -1.807949,1.900126 -0.204101,0.214844 -0.408344,0.429297 -0.453872,0.476563 -0.04553,0.04727 -0.184404,0.193164 -0.308613,0.324219 -0.12421,0.131054 -0.25799,0.271679 -0.29729,0.3125 -0.0393,0.04082 -0.243342,0.255398 -0.453428,0.47684 -0.210085,0.221442 -0.510294,0.537818 -0.66713,0.703057 -0.156835,0.16524 -0.374418,0.390994 -0.483517,0.501676 l -0.19836,0.201239 H 56.342655 53.6875 Z"
   id="path26" /><path
   style="opacity:1;fill:#b7b29e;fill-opacity:1;stroke-width:0.015625"
   d="m 75.197107,63.832031 c 0.22925,-0.238492 2.465281,-2.598225 3.786612,-3.996094 1.584922,-1.676728 2.156082,-2.282926 3.173042,-3.367691 2.446713,-2.609848 3.898457,-4.19223 4.4649,-4.866684 1.008421,-1.200707 1.45876,-3.19172 1.14283,-5.052607 -0.197559,-1.163657 -0.688586,-2.211055 -1.480644,-3.15833 -0.183692,-0.219689 -0.539696,-0.58815 -0.752597,-0.778932 l -0.132813,-0.119014 0.09016,-2.46e-4 0.09016,-2.46e-4 0.152026,0.138255 c 1.125139,1.023218 1.905177,2.425406 2.165676,3.892995 0.121349,0.683648 0.135086,1.408884 0.03962,2.09148 -0.111302,0.795791 -0.337855,1.502696 -0.727564,2.27018 -0.155135,0.305521 -0.348899,0.63302 -0.465495,0.786778 -0.263693,0.347738 -3.567837,3.868436 -10.320793,10.997219 -1.178716,1.244315 -1.179367,1.244968 -1.241653,1.244968 h -0.06232 z"
   id="path27" /><path
   style="opacity:1;fill:#b7b29e;fill-opacity:1;stroke-width:0.015625"
   d="m 64.9375,59.62335 v -4.884464 l 0.04087,-0.04913 c 0.02248,-0.02702 0.108615,-0.119572 0.191407,-0.205667 0.08279,-0.0861 0.277519,-0.290001 0.432728,-0.453125 1.511497,-1.588579 3.940262,-4.134561 4.53849,-4.757527 2.072199,-2.157886 2.605329,-2.710906 3.163237,-3.28125 0.163925,-0.167578 0.493986,-0.505078 0.73347,-0.75 0.964078,-0.985969 2.099319,-2.096349 2.625861,-2.568356 l 0.20263,-0.181644 h 4.251094 4.251095 l 0.140025,0.122935 c 0.187097,0.164262 0.595613,0.582707 0.753154,0.771461 0.688581,0.825007 1.140557,1.693194 1.378268,2.647468 0.442263,1.775435 0.179869,3.693358 -0.698795,5.107741 -0.0718,0.115568 -0.212356,0.305796 -0.328245,0.444227 -0.879183,1.050204 -3.911232,4.307306 -9.440919,10.141672 -0.640234,0.67551 -1.494531,1.576865 -1.898438,2.00301 l -0.734375,0.77481 -4.800781,0.0012 -4.800781,0.0011 z"
   id="path28" /><path
   style="opacity:1;fill:#b7b29e;fill-opacity:1;stroke-width:0.015625"
   d="m 65.056348,54.457889 c 0.06107,-0.06278 0.80267,-0.841873 1.648003,-1.731327 6.990681,-7.355548 9.154374,-9.574519 10.171564,-10.431425 0.466415,-0.39292 0.751842,-0.577565 1.26471,-0.818154 0.774948,-0.363532 1.476585,-0.564391 2.304687,-0.659768 0.232389,-0.02676 1.03721,-0.0264 1.289063,5.88e-4 1.040687,0.111511 2.032761,0.4506 2.920994,0.998389 0.268647,0.16568 0.669132,0.455904 0.844631,0.612089 l 0.07031,0.06257 -0.0866,6.66e-4 c -0.0863,6.64e-4 -0.08725,1.5e-4 -0.273437,-0.148642 -0.413045,-0.330079 -0.847391,-0.604146 -1.31965,-0.832686 -0.945133,-0.457377 -1.306345,-0.515309 -3.101563,-0.497433 -0.913645,0.0091 -1.116054,0.02144 -1.43916,0.08779 -0.305085,0.06264 -0.53314,0.14386 -0.935801,0.333267 -0.6018,0.283079 -0.967537,0.531057 -1.593789,1.080624 -1.291373,1.133243 -3.849856,3.751792 -10.756468,11.008999 -0.973644,1.02307 -0.989863,1.039136 -1.053698,1.043827 l -0.06483,0.0048 z"
   id="path29" /><path
   style="opacity:1;fill:#b7b29e;fill-opacity:1;stroke-width:0.015625"
   d="m 65.181683,54.472656 c 8.063095,-8.477163 10.583757,-11.055836 11.834878,-12.10725 0.485429,-0.407943 0.782924,-0.608049 1.249064,-0.840166 0.899666,-0.447993 1.195404,-0.501613 2.765625,-0.501436 1.470998,1.66e-4 1.823406,0.04862 2.523437,0.34696 0.837946,0.357115 1.53983,0.830656 2.216561,1.495448 0.78003,0.766266 1.31903,1.578125 1.665789,2.509061 0.566894,1.521924 0.551261,3.350731 -0.04153,4.859102 -0.148905,0.378892 -0.405256,0.863448 -0.588462,1.112317 -0.218357,0.296616 -1.033483,1.208407 -2.502354,2.799107 l -0.390625,0.423024 -9.412633,7.45e-4 -9.412632,7.44e-4 z"
   id="path30" /><path
   style="opacity:1;fill:#b7b29e;fill-opacity:1;stroke-width:0.00390625"
   d="m 75.412193,43.854365 c 0.42103,-0.417035 0.886803,-0.859972 1.220315,-1.160487 0.524422,-0.472536 0.895537,-0.761645 1.254211,-0.977064 0.208918,-0.125475 0.631131,-0.331499 0.898437,-0.438401 0.409199,-0.163649 0.780081,-0.232683 1.351274,-0.251518 l 0.08232,-0.0027 v 1.477168 1.477168 l -2.46582,-1.28e-4 -2.465821,-1.27e-4 z"
   id="path31" /><path
   style="opacity:1;fill:#b7b29e;fill-opacity:1;stroke-width:0.00390625"
   d="m 75.418061,43.848511 c 0.857199,-0.849402 1.545007,-1.472327 2.01358,-1.823633 0.320955,-0.240633 0.568138,-0.387166 0.984006,-0.583333 0.447397,-0.21104 0.710488,-0.299719 1.055056,-0.355623 0.183638,-0.02979 0.429242,-0.05163 0.665039,-0.05912 l 0.08301,-0.0026 v 1.477179 1.477179 l -2.46582,-1.23e-4 -2.465821,-1.22e-4 z"
   id="path32" /><path
   style="opacity:1;fill:#b7b29e;fill-opacity:1;stroke-width:0.0110485"
   d="m 55.442091,64.570336 c -3.45e-4,-0.0058 7.289756,-7.680526 7.777178,-8.1875 0.02662,-0.02769 0.03628,-0.03066 0.08974,-0.02762 l 0.05991,0.0034 -0.689972,0.72368 c -1.363007,1.429595 -2.660331,2.783918 -3.646033,3.806223 -1.724236,1.788264 -3.589684,3.700981 -3.590825,3.681813 z"
   id="path33" /><path
   style="opacity:1;fill:#b7b29e;fill-opacity:1;stroke-width:0.00390625"
   d="m 50.435547,63.893797 c -0.195309,-0.176063 -0.568455,-0.513208 -0.71875,-0.649406 l -0.15625,-0.141594 -6.65e-4,-0.05992 -6.65e-4,-0.05992 0.29754,0.270351 c 0.221352,0.201125 0.754381,0.68373 0.797345,0.721916 0.002,0.0018 -0.02521,0.0033 -0.06055,0.0032 l -0.06426,-1.04e-4 z"
   id="path34" /><path
   style="opacity:1;fill:#b7b29e;fill-opacity:1;stroke-width:0.00390625"
   d="m 63.259766,56.336933 c 0.06018,-0.06657 1.718628,-1.807106 1.720292,-1.805443 0.001,0.001 -0.0068,0.01085 -0.0174,0.0218 l -0.0193,0.01991 0.04101,-0.0027 c 0.04905,-0.0032 0.06463,-0.0092 0.10315,-0.04009 0.01524,-0.01221 0.07936,-0.07327 0.142487,-0.135695 0.06312,-0.06243 0.1141,-0.11163 0.113282,-0.109344 -8.19e-4,0.0023 -0.44403,0.469166 -0.984913,1.037511 l -0.983424,1.033355 -0.0615,-4.02e-4 c -0.03382,-2.21e-4 -0.06501,0.0013 -0.06931,0.0033 -0.0043,0.002 0.0027,-0.008 0.01563,-0.02223 z"
   id="path35" /><path
   style="opacity:1;fill:#b7b29e;fill-opacity:1;stroke-width:0.00552427"
   d="m 85.315071,53.07306 c 0.0062,-0.0068 0.05299,-0.05842 0.104084,-0.114629 0.679622,-0.747733 1.106971,-1.23075 1.270069,-1.435513 0.343151,-0.430811 0.627645,-0.972046 0.829446,-1.577977 0.381269,-1.144809 0.451758,-2.470837 0.195135,-3.670879 -0.06559,-0.306703 -0.160028,-0.63307 -0.259337,-0.896214 -0.01504,-0.03985 -0.02734,-0.07326 -0.02734,-0.07426 0,-9.91e-4 0.02827,-0.0018 0.06282,-0.0018 h 0.06282 l 0.03873,0.106343 c 0.229155,0.62926 0.348778,1.209115 0.394603,1.912779 0.0091,0.139132 0.0091,0.614206 1.9e-5,0.756825 -0.0554,0.872668 -0.252524,1.663397 -0.612481,2.456844 -0.05644,0.124415 -0.198367,0.411711 -0.256056,0.518328 -0.129015,0.23844 -0.285193,0.495387 -0.367911,0.605295 -0.08637,0.114759 -0.475317,0.544368 -1.158407,1.279511 l -0.13731,0.147774 h -0.07504 -0.07503 z"
   id="path36" /><path
   style="opacity:1;fill:#000000;fill-opacity:1;stroke-width:0.00552427"
   d="m 85.314994,53.07306 c 0.0061,-0.0068 0.09799,-0.108138 0.204167,-0.225115 0.574336,-0.632747 1.002488,-1.117297 1.154423,-1.30649 0.692384,-0.862169 1.118357,-2.10395 1.184297,-3.452415 0.0071,-0.146018 0.0072,-0.54535 1.23e-4,-0.690789 -0.0357,-0.732418 -0.183713,-1.453544 -0.428327,-2.086793 -0.0034,-0.0089 0.0016,-0.0097 0.05986,-0.0097 h 0.0636 l 0.01772,0.04834 c 0.207722,0.566677 0.327062,1.068041 0.386265,1.622754 0.124046,1.162269 -0.05054,2.319346 -0.513501,3.40324 -0.211743,0.495738 -0.546535,1.103845 -0.732815,1.331061 -0.08986,0.10961 -0.576302,0.648426 -0.807944,0.894938 -0.01999,0.02127 -0.06509,0.06975 -0.100215,0.107724 -0.03513,0.03798 -0.127884,0.138031 -0.206121,0.222346 l -0.142249,0.153298 h -0.0752 -0.0752 z"
   id="path37" /><path
   style="opacity:1;fill:#000000;fill-opacity:1;stroke-width:0.25"
   d="M 55.399165,111.0903 C 35.722888,108.56549 19.323346,94.782037 13.623925,75.979117 12.229415,71.3785 11.71689,68.10199 11.574128,62.875 c -0.09478,-3.470065 -0.02368,-5.403838 0.284713,-7.743895 2.793907,-21.200027 18.518377,-38.213986 39.390666,-42.620908 20.53621,-4.3359635 41.947235,4.949772 52.860203,22.924916 7.88715,12.991199 9.48562,28.787954 4.34508,42.939887 -4.40865,12.137067 -13.24658,22.03801 -24.82979,27.8163 -5.053083,2.52073 -9.87283,4.00372 -15.625,4.80766 -2.875685,0.40192 -9.789865,0.45203 -12.600835,0.0913 z m 1.86269,-28.486008 c 1.56125,-0.861235 29.274705,-29.893305 30.153915,-31.58865 1.76802,-3.409195 0.528222,-7.5838 -2.838185,-9.556647 -2.198088,-1.288165 -5.67081,-1.071293 -7.732843,0.482917 C 76.4375,42.24886 71.33965,47.50625 65.516182,53.625 59.692717,59.74375 54.613172,65.078912 54.228305,65.480917 L 53.52855,66.211835 51.701775,64.573712 C 50.697047,63.672745 48.525,61.672362 46.875,60.12842 43.22835,56.716165 42.143867,56.128635 39.5,56.132932 c -4.137914,0.0067 -6.750464,2.54679 -6.956535,6.76352 -0.139662,2.85783 0.341079,3.753513 3.90381,7.273295 2.916947,2.881785 12.418522,11.432653 13.492495,12.142465 1.886905,1.247093 5.34105,1.38488 7.322085,0.29208 z"
   id="path38" /></g></svg>
